<svg t="1612492751904" class="icon" viewBox="0 0 1024 1024" version="1.1" xmlns="http://www.w3.org/2000/svg" p-id="2210" width="128" height="128"><path d="M866.461538 787.692308a78.769231 78.769231 0 0 1-78.76923 78.76923H236.307692a78.769231 78.769231 0 0 1-78.76923-78.76923V236.307692a78.769231 78.769231 0 0 1 78.76923-78.76923h551.384616a78.769231 78.769231 0 0 1 78.76923 78.76923v551.384616zM318.976 744.329846H189.046154V787.692308a47.261538 47.261538 0 0 0 42.417231 47.02523L236.307692 834.953846l82.668308-0.039384v-90.584616z m354.461538 0h-145.723076v90.584616h145.723076v-90.584616z m-177.230769 0h-145.723077v90.584616h145.723077v-90.584616z m338.707693 0h-129.969231v90.584616L787.692308 834.953846a47.261538 47.261538 0 0 0 47.02523-42.417231L834.953846 787.692308l-0.039384-43.362462z m-515.938462-157.538461H189.046154v126.030769h129.929846v-126.030769z m177.230769 0h-145.723077v126.030769h145.723077v-126.030769z m177.230769 0h-145.723076v126.030769h145.723076v-126.030769z m161.476924 0h-129.969231v126.030769h129.969231v-126.030769z m-515.938462-157.538462H189.046154v126.030769h129.929846v-126.030769z m354.461538 0h-145.723076v126.030769h145.723076v-126.030769z m-177.230769 0h-145.723077v126.030769h145.723077v-126.030769z m338.707693 0h-129.969231v126.030769h129.969231v-126.030769zM787.692308 189.046154H236.307692a47.261538 47.261538 0 0 0-47.02523 42.417231L189.046154 236.307692v161.437539h645.868308L834.953846 236.307692a47.261538 47.261538 0 0 0-42.417231-47.02523L787.692308 189.046154z"  p-id="2211"></path></svg>